<svg width="1980" height="1080" viewBox="0 0 1980 1080" fill="none" xmlns="http://www.w3.org/2000/svg">
<line x1="1897.5" y1="-390" x2="1896.27" y2="2979" stroke="#EC6011" stroke-opacity="0.84"/>
<line x1="2128.36" y1="83.3439" x2="-77.6533" y2="2411.08" stroke="#EC6011" stroke-opacity="0.84"/>
<line y1="-0.5" x2="29.1793" y2="-0.5" transform="matrix(0.998192 0.0600989 -0.0541544 0.998533 1792.48 422.146)" stroke="#EB6920" stroke-opacity="0.75"/>
<line y1="-0.5" x2="30.7103" y2="-0.5" transform="matrix(0.129802 0.99154 -0.989604 0.143818 1805.12 406.777)" stroke="#EC6011" stroke-opacity="0.84"/>
<line y1="-0.4" x2="29.6795" y2="-0.4" transform="matrix(0.812155 0.583442 -0.543281 0.839551 1884.86 874.006)" stroke="#EC6011" stroke-opacity="0.84" stroke-width="0.8"/>
<line y1="-0.4" x2="29.6795" y2="-0.4" transform="matrix(0.812155 -0.583442 0.543281 0.839551 1884.86 891.323)" stroke="#EC6011" stroke-opacity="0.84" stroke-width="0.8"/>
<line x1="1214.83" y1="1032.32" x2="1244" y2="1032.32" stroke="#EC6011" stroke-opacity="0.84"/>
<line x1="1229.92" y1="1017.45" x2="1229.92" y2="1048.19" stroke="#EC6011" stroke-opacity="0.84"/>
<line y1="-0.5" x2="29.7687" y2="-0.5" transform="matrix(-0.775479 0.631374 -0.591394 -0.806383 1908.2 18.4432)" stroke="#EC6011" stroke-opacity="0.84"/>
<line y1="-0.5" x2="27.5885" y2="-0.5" transform="matrix(0.775479 0.631374 -0.591394 0.806383 1886.81 18.4432)" stroke="#EC6011" stroke-opacity="0.84"/>
</svg>
