<svg width="444" height="70" viewBox="0 0 444 70" fill="none" xmlns="http://www.w3.org/2000/svg">
<g filter="url(#filter0_d)">
<g filter="url(#filter1_d)">
<rect x="7" y="3" width="251" height="56" fill="white"/>
<rect x="7" y="3" width="251" height="56" stroke="#13C9CD" stroke-width="5"/>
</g>
<path d="M37.7011 44.36C35.1571 44.36 32.8531 43.808 30.7891 42.704C28.7491 41.576 27.1411 40.028 25.9651 38.06C24.8131 36.092 24.2371 33.872 24.2371 31.4C24.2371 28.928 24.8251 26.708 26.0011 24.74C27.1771 22.772 28.7851 21.236 30.8251 20.132C32.8891 19.004 35.1931 18.44 37.7371 18.44C39.8011 18.44 41.6851 18.8 43.3891 19.52C45.0931 20.24 46.5331 21.284 47.7091 22.652L44.6851 25.496C42.8611 23.528 40.6171 22.544 37.9531 22.544C36.2251 22.544 34.6771 22.928 33.3091 23.696C31.9411 24.44 30.8731 25.484 30.1051 26.828C29.3371 28.172 28.9531 29.696 28.9531 31.4C28.9531 33.104 29.3371 34.628 30.1051 35.972C30.8731 37.316 31.9411 38.372 33.3091 39.14C34.6771 39.884 36.2251 40.256 37.9531 40.256C40.6171 40.256 42.8611 39.26 44.6851 37.268L47.7091 40.148C46.5331 41.516 45.0811 42.56 43.3531 43.28C41.6491 44 39.7651 44.36 37.7011 44.36ZM69.81 38.168H57.21L54.726 44H49.902L61.242 18.8H65.85L77.226 44H72.33L69.81 38.168ZM68.262 34.496L63.51 23.48L58.794 34.496H68.262ZM82.2309 18.8H86.9109V40.04H100.087V44H82.2309V18.8ZM124.482 40.076V44H105.582V18.8H123.978V22.724H110.262V29.276H122.43V33.128H110.262V40.076H124.482ZM153.891 18.8V44H150.039L136.143 26.936V44H131.499V18.8H135.351L149.247 35.864V18.8H153.891ZM162.443 18.8H173.459C176.147 18.8 178.535 19.328 180.623 20.384C182.711 21.416 184.331 22.892 185.483 24.812C186.635 26.708 187.211 28.904 187.211 31.4C187.211 33.896 186.635 36.104 185.483 38.024C184.331 39.92 182.711 41.396 180.623 42.452C178.535 43.484 176.147 44 173.459 44H162.443V18.8ZM173.243 40.04C175.091 40.04 176.711 39.692 178.103 38.996C179.519 38.276 180.599 37.268 181.343 35.972C182.111 34.652 182.495 33.128 182.495 31.4C182.495 29.672 182.111 28.16 181.343 26.864C180.599 25.544 179.519 24.536 178.103 23.84C176.711 23.12 175.091 22.76 173.243 22.76H167.123V40.04H173.243ZM209.978 38.168H197.378L194.894 44H190.07L201.41 18.8H206.018L217.394 44H212.498L209.978 38.168ZM208.43 34.496L203.678 23.48L198.962 34.496H208.43ZM238.887 44L233.739 36.62C233.523 36.644 233.199 36.656 232.767 36.656H227.079V44H222.399V18.8H232.767C234.951 18.8 236.847 19.16 238.455 19.88C240.087 20.6 241.335 21.632 242.199 22.976C243.063 24.32 243.495 25.916 243.495 27.764C243.495 29.66 243.027 31.292 242.091 32.66C241.179 34.028 239.859 35.048 238.131 35.72L243.927 44H238.887ZM238.779 27.764C238.779 26.156 238.251 24.92 237.195 24.056C236.139 23.192 234.591 22.76 232.551 22.76H227.079V32.804H232.551C234.591 32.804 236.139 32.372 237.195 31.508C238.251 30.62 238.779 29.372 238.779 27.764Z" fill="#404445"/>
<path d="M283.21 42.18C281.65 42.18 280.15 41.93 278.71 41.43C277.29 40.93 276.19 40.27 275.41 39.45L276.28 37.74C277.04 38.5 278.05 39.12 279.31 39.6C280.57 40.06 281.87 40.29 283.21 40.29C285.09 40.29 286.5 39.95 287.44 39.27C288.38 38.57 288.85 37.67 288.85 36.57C288.85 35.73 288.59 35.06 288.07 34.56C287.57 34.06 286.95 33.68 286.21 33.42C285.47 33.14 284.44 32.84 283.12 32.52C281.54 32.12 280.28 31.74 279.34 31.38C278.4 31 277.59 30.43 276.91 29.67C276.25 28.91 275.92 27.88 275.92 26.58C275.92 25.52 276.2 24.56 276.76 23.7C277.32 22.82 278.18 22.12 279.34 21.6C280.5 21.08 281.94 20.82 283.66 20.82C284.86 20.82 286.03 20.99 287.17 21.33C288.33 21.65 289.33 22.1 290.17 22.68L289.42 24.45C288.54 23.87 287.6 23.44 286.6 23.16C285.6 22.86 284.62 22.71 283.66 22.71C281.82 22.71 280.43 23.07 279.49 23.79C278.57 24.49 278.11 25.4 278.11 26.52C278.11 27.36 278.36 28.04 278.86 28.56C279.38 29.06 280.02 29.45 280.78 29.73C281.56 29.99 282.6 30.28 283.9 30.6C285.44 30.98 286.68 31.36 287.62 31.74C288.58 32.1 289.39 32.66 290.05 33.42C290.71 34.16 291.04 35.17 291.04 36.45C291.04 37.51 290.75 38.48 290.17 39.36C289.61 40.22 288.74 40.91 287.56 41.43C286.38 41.93 284.93 42.18 283.21 42.18ZM304.997 42.18C302.917 42.18 301.037 41.72 299.357 40.8C297.697 39.88 296.387 38.61 295.427 36.99C294.487 35.35 294.017 33.52 294.017 31.5C294.017 29.48 294.487 27.66 295.427 26.04C296.387 24.4 297.707 23.12 299.387 22.2C301.067 21.28 302.947 20.82 305.027 20.82C306.587 20.82 308.027 21.08 309.347 21.6C310.667 22.12 311.787 22.88 312.707 23.88L311.297 25.29C309.657 23.63 307.587 22.8 305.087 22.8C303.427 22.8 301.917 23.18 300.557 23.94C299.197 24.7 298.127 25.74 297.347 27.06C296.587 28.38 296.207 29.86 296.207 31.5C296.207 33.14 296.587 34.62 297.347 35.94C298.127 37.26 299.197 38.3 300.557 39.06C301.917 39.82 303.427 40.2 305.087 40.2C307.607 40.2 309.677 39.36 311.297 37.68L312.707 39.09C311.787 40.09 310.657 40.86 309.317 41.4C307.997 41.92 306.557 42.18 304.997 42.18ZM334.99 21V42H332.8V32.31H319.66V42H317.44V21H319.66V30.36H332.8V21H334.99ZM351.024 42.18C348.944 42.18 347.054 41.72 345.354 40.8C343.674 39.86 342.354 38.58 341.394 36.96C340.454 35.34 339.984 33.52 339.984 31.5C339.984 29.48 340.454 27.66 341.394 26.04C342.354 24.42 343.674 23.15 345.354 22.23C347.054 21.29 348.944 20.82 351.024 20.82C353.104 20.82 354.974 21.28 356.634 22.2C358.314 23.12 359.634 24.4 360.594 26.04C361.554 27.66 362.034 29.48 362.034 31.5C362.034 33.52 361.554 35.35 360.594 36.99C359.634 38.61 358.314 39.88 356.634 40.8C354.974 41.72 353.104 42.18 351.024 42.18ZM351.024 40.2C352.684 40.2 354.184 39.83 355.524 39.09C356.864 38.33 357.914 37.29 358.674 35.97C359.434 34.63 359.814 33.14 359.814 31.5C359.814 29.86 359.434 28.38 358.674 27.06C357.914 25.72 356.864 24.68 355.524 23.94C354.184 23.18 352.684 22.8 351.024 22.8C349.364 22.8 347.854 23.18 346.494 23.94C345.154 24.68 344.094 25.72 343.314 27.06C342.554 28.38 342.174 29.86 342.174 31.5C342.174 33.14 342.554 34.63 343.314 35.97C344.094 37.29 345.154 38.33 346.494 39.09C347.854 39.83 349.364 40.2 351.024 40.2ZM376.19 42.18C374.11 42.18 372.22 41.72 370.52 40.8C368.84 39.86 367.52 38.58 366.56 36.96C365.62 35.34 365.15 33.52 365.15 31.5C365.15 29.48 365.62 27.66 366.56 26.04C367.52 24.42 368.84 23.15 370.52 22.23C372.22 21.29 374.11 20.82 376.19 20.82C378.27 20.82 380.14 21.28 381.8 22.2C383.48 23.12 384.8 24.4 385.76 26.04C386.72 27.66 387.2 29.48 387.2 31.5C387.2 33.52 386.72 35.35 385.76 36.99C384.8 38.61 383.48 39.88 381.8 40.8C380.14 41.72 378.27 42.18 376.19 42.18ZM376.19 40.2C377.85 40.2 379.35 39.83 380.69 39.09C382.03 38.33 383.08 37.29 383.84 35.97C384.6 34.63 384.98 33.14 384.98 31.5C384.98 29.86 384.6 28.38 383.84 27.06C383.08 25.72 382.03 24.68 380.69 23.94C379.35 23.18 377.85 22.8 376.19 22.8C374.53 22.8 373.02 23.18 371.66 23.94C370.32 24.68 369.26 25.72 368.48 27.06C367.72 28.38 367.34 29.86 367.34 31.5C367.34 33.14 367.72 34.63 368.48 35.97C369.26 37.29 370.32 38.33 371.66 39.09C373.02 39.83 374.53 40.2 376.19 40.2ZM392.176 21H394.396V40.08H406.156V42H392.176V21ZM430.173 40.08V42H415.443V40.47L424.173 31.92C425.273 30.84 426.013 29.91 426.393 29.13C426.793 28.33 426.993 27.53 426.993 26.73C426.993 25.49 426.563 24.53 425.703 23.85C424.863 23.15 423.653 22.8 422.073 22.8C419.613 22.8 417.703 23.58 416.343 25.14L414.813 23.82C415.633 22.86 416.673 22.12 417.933 21.6C419.213 21.08 420.653 20.82 422.253 20.82C424.393 20.82 426.083 21.33 427.323 22.35C428.583 23.35 429.213 24.73 429.213 26.49C429.213 27.57 428.973 28.61 428.493 29.61C428.013 30.61 427.103 31.76 425.763 33.06L418.623 40.08H430.173ZM438.704 21V42H436.544V22.92H431.594V21H438.704Z" fill="#404445"/>
</g>
<defs>
<filter id="filter0_d" x="0.5" y="0.5" width="442.204" height="69" filterUnits="userSpaceOnUse" color-interpolation-filters="sRGB">
<feFlood flood-opacity="0" result="BackgroundImageFix"/>
<feColorMatrix in="SourceAlpha" type="matrix" values="0 0 0 0 0 0 0 0 0 0 0 0 0 0 0 0 0 0 127 0"/>
<feOffset dy="4"/>
<feGaussianBlur stdDeviation="2"/>
<feColorMatrix type="matrix" values="0 0 0 0 0 0 0 0 0 0 0 0 0 0 0 0 0 0 0.25 0"/>
<feBlend mode="normal" in2="BackgroundImageFix" result="effect1_dropShadow"/>
<feBlend mode="normal" in="SourceGraphic" in2="effect1_dropShadow" result="shape"/>
</filter>
<filter id="filter1_d" x="0.5" y="0.5" width="264" height="69" filterUnits="userSpaceOnUse" color-interpolation-filters="sRGB">
<feFlood flood-opacity="0" result="BackgroundImageFix"/>
<feColorMatrix in="SourceAlpha" type="matrix" values="0 0 0 0 0 0 0 0 0 0 0 0 0 0 0 0 0 0 127 0"/>
<feOffset dy="4"/>
<feGaussianBlur stdDeviation="2"/>
<feColorMatrix type="matrix" values="0 0 0 0 0 0 0 0 0 0 0 0 0 0 0 0 0 0 0.25 0"/>
<feBlend mode="normal" in2="BackgroundImageFix" result="effect1_dropShadow"/>
<feBlend mode="normal" in="SourceGraphic" in2="effect1_dropShadow" result="shape"/>
</filter>
</defs>
</svg>
